<?xml version="1.0" encoding="UTF-8"?>
<svg width="56.9804068px" height="57px" viewBox="0 0 56.9804068 57" version="1.1" xmlns="http://www.w3.org/2000/svg" xmlns:xlink="http://www.w3.org/1999/xlink">
    <title>icon_clock.outline.gray</title>
    <g id="Recent-Activity-screens" stroke="none" stroke-width="1" fill="none" fill-rule="evenodd">
        <g id="LG---Lobby-non-signed-in" transform="translate(-271, -892)" fill-rule="nonzero">
            <g id="icon_clock.outline.gray" transform="translate(271, 892)">
                <rect id="Rectangle" fill="#000000" opacity="0" x="0" y="0" width="56.9804068" height="57"></rect>
                <path d="M13.0504009,31.271469 L28.4661711,31.271469 C29.345008,31.271469 30.0405667,30.6042796 30.0405667,29.7059515 L30.0405667,9.79700033 C30.0405667,8.92704163 29.345008,8.26867934 28.4661711,8.26867934 C27.6138667,8.26867934 26.9379011,8.92704163 26.9379011,9.79700033 L26.9379011,28.1776816 L13.0504009,28.1776816 C12.1520729,28.1776816 11.4937616,28.844769 11.4937616,29.7059515 C11.4937616,30.6042796 12.1520729,31.271469 13.0504009,31.271469 Z" id="Path" fill="#8E8E93"></path>
                <path d="M28.4857643,56.9716307 C44.1052222,56.9716307 56.9804068,44.0768528 56.9804068,28.4857643 C56.9804068,12.8751846 44.085629,0 28.4661711,0 C12.8751846,0 0,12.8751846 0,28.4857643 C0,44.0768528 12.8947778,56.9716307 28.4857643,56.9716307 Z M28.4857643,53.2879041 C14.7455193,53.2879041 3.7033504,42.2261114 3.7033504,28.4857643 C3.7033504,14.7455193 14.7259261,3.67495045 28.4661711,3.67495045 C42.2065182,3.67495045 53.2966802,14.7455193 53.2966802,28.4857643 C53.2966802,42.2261114 42.2261114,53.2879041 28.4857643,53.2879041 Z" id="Shape" fill="#8E8E93"></path>
            </g>
        </g>
    </g>
</svg>